<svg id="SvgjsSvg1001" width="288" height="288" xmlns="http://www.w3.org/2000/svg" version="1.1" xmlns:xlink="http://www.w3.org/1999/xlink" xmlns:svgjs="http://svgjs.com/svgjs"><defs id="SvgjsDefs1002"></defs><g id="SvgjsG1008"><svg xmlns="http://www.w3.org/2000/svg" viewBox="0 0 181.681 210.194" width="288" height="288"><defs><clipPath id="a" clipPathUnits="userSpaceOnUse"><path d="M 0,500 H 500 V 0 H 0 Z" transform="translate(-284.637 -335.968)"></path></clipPath></defs><path fill="#f5b225" d="m 0,0 c 1.413,-4.466 -1.062,-9.232 -5.528,-10.644 -4.466,-1.413 -9.232,1.062 -10.644,5.528 -1.413,4.466 1.062,9.232 5.528,10.644 1.763,0.558 3.571,0.502 5.203,-0.036 l 6.284,14.117 c -1.797,0.728 -3.192,1.857 -4.187,3.264 l -9.26,-3.425 c 0.09,-0.332 0.159,-0.673 0.193,-1.027 0.328,-3.411 -2.171,-6.442 -5.582,-6.77 -3.411,-0.328 -6.442,2.171 -6.77,5.582 -0.328,3.411 2.171,6.443 5.582,6.771 2.167,0.208 4.178,-0.728 5.443,-2.31 l 9.216,3.409 c -0.835,2.157 -1.025,4.638 -0.647,7.089 l -21.226,1.83 c -0.893,-2.396 -3.546,-3.639 -5.96,-2.773 -2.433,0.873 -3.698,3.553 -2.825,5.986 0.872,2.433 3.552,3.698 5.985,2.825 1.62,-0.581 2.704,-1.968 3.001,-3.546 l 21.63,-1.864 c 0.805,2.258 2.239,4.07 4.075,5.382 l -6.765,14.671 c -1.221,-0.346 -2.543,-0.404 -3.87,-0.111 -4.291,0.947 -7.001,5.193 -6.054,9.484 0.947,4.291 5.193,7.001 9.484,6.054 4.29,-0.947 7.001,-5.193 6.054,-9.484 -0.46,-2.084 -1.702,-3.791 -3.346,-4.891 L 1.688,41.28 c 1.111,0.499 2.308,0.853 3.557,1.054 v 23.448 c 0,5.503 -4.462,9.964 -9.965,9.964 h -9.987 c -5.504,0 -9.965,-4.461 -9.965,-9.964 V 46.041 c 0,-2.116 -1.716,-3.832 -3.832,-3.832 h -11.118 c -2.75,0 -4.98,2.23 -4.98,4.981 v 18.592 c 0,5.503 -4.461,9.964 -9.965,9.964 h -9.987 c -5.503,0 -9.965,-4.461 -9.965,-9.964 V -6.571 c 0,-5.504 4.462,-9.965 9.965,-9.965 h 9.987 c 5.504,0 9.965,4.461 9.965,9.965 v 16.639 c 0,2.751 2.23,4.981 4.98,4.981 h 11.118 c 2.116,0 3.832,-1.716 3.832,-3.832 V -6.571 c 0,-5.504 4.461,-9.965 9.965,-9.965 h 9.987 c 5.503,0 9.965,4.461 9.965,9.965 V 18.737 C 4.91,18.748 4.574,18.762 4.237,18.794 3.903,18.825 3.594,18.883 3.279,18.935 L -3.206,4.367 C -1.74,3.336 -0.582,1.841 0,0" clip-path="url(#a)" transform="matrix(-2.27774 0 0 -2.27774 11.947 172.53)" class="color73e2ba svgShape"></path></svg></g></svg>